<svg width="25" height="24" viewBox="0 0 25 24" fill="none" xmlns="http://www.w3.org/2000/svg">
<path d="M23.9359 0H1.84055C1.30918 0 0.879883 0.429 0.879883 0.96V23.04C0.879883 23.571 1.30918 24 1.84055 24H23.9359C24.4672 24 24.8965 23.571 24.8965 23.04V0.96C24.8965 0.429 24.4672 0 23.9359 0ZM22.9752 22.08H17.4484V14.706H20.5705L21.0389 11.085H17.4484V8.772C17.4484 7.722 17.7396 7.008 19.2436 7.008H21.162V3.768C20.8287 3.723 19.6909 3.624 18.364 3.624C15.5961 3.624 13.7018 5.313 13.7018 8.412V11.082H10.5736V14.703H13.7048V22.08H2.80122V1.92H22.9752V22.08Z" fill="white"/>
</svg>
