<svg xmlns="http://www.w3.org/2000/svg" viewBox="0 0 1440 320"><path fill="#64240F" fill-opacity="1" d="M0,288L30,277.3C60,267,120,245,180,234.7C240,224,300,224,360,229.3C420,235,480,245,540,256C600,267,660,277,720,288C780,299,840,309,900,304C960,299,1020,277,1080,240C1140,203,1200,149,1260,133.3C1320,117,1380,139,1410,149.3L1440,160L1440,320L1410,320C1380,320,1320,320,1260,320C1200,320,1140,320,1080,320C1020,320,960,320,900,320C840,320,780,320,720,320C660,320,600,320,540,320C480,320,420,320,360,320C300,320,240,320,180,320C120,320,60,320,30,320L0,320Z"></path></svg>
