<svg width="26" height="26" viewBox="0 0 26 26" fill="none" xmlns="http://www.w3.org/2000/svg">
<path d="M12.8882 18.3334C14.3037 18.3334 15.6612 17.7715 16.6621 16.7713C17.663 15.7711 18.2253 14.4146 18.2253 13.0001C18.2253 11.5856 17.663 10.229 16.6621 9.22885C15.6612 8.22865 14.3037 7.66675 12.8882 7.66675C11.4728 7.66675 10.1153 8.22865 9.11439 9.22885C8.1135 10.229 7.55121 11.5856 7.55121 13.0001C7.55121 14.4146 8.1135 15.7711 9.11439 16.7713C10.1153 17.7715 11.4728 18.3334 12.8882 18.3334Z" stroke="white" stroke-width="1.5" stroke-linecap="round" stroke-linejoin="round"/>
<path d="M0.879883 18.3333V7.66667C0.879883 5.89856 1.58275 4.20286 2.83386 2.95262C4.08497 1.70238 5.78184 1 7.55118 1H18.2253C19.9946 1 21.6915 1.70238 22.9426 2.95262C24.1937 4.20286 24.8965 5.89856 24.8965 7.66667V18.3333C24.8965 20.1014 24.1937 21.7971 22.9426 23.0474C21.6915 24.2976 19.9946 25 18.2253 25H7.55118C5.78184 25 4.08497 24.2976 2.83386 23.0474C1.58275 21.7971 0.879883 20.1014 0.879883 18.3333Z" stroke="white" stroke-width="1.5"/>
<path d="M20.2266 5.67995L20.24 5.66528" stroke="white" stroke-width="1.5" stroke-linecap="round" stroke-linejoin="round"/>
</svg>
