<svg width="27" height="28" viewBox="0 0 27 28" fill="none" xmlns="http://www.w3.org/2000/svg">
<path d="M5.44186 24.5814C5.44186 25.2228 5.69668 25.838 6.15025 26.2916C6.60383 26.7452 7.21901 27 7.86046 27C8.50192 27 9.1171 26.7452 9.57068 26.2916C10.0243 25.838 10.2791 25.2228 10.2791 24.5814M13.907 24.5814C13.907 25.2228 14.1618 25.838 14.6154 26.2916C15.0689 26.7452 15.6841 27 16.3256 27C16.967 27 17.5822 26.7452 18.0358 26.2916C18.4894 25.838 18.7442 25.2228 18.7442 24.5814M7.25581 8.25581H26V8.55814L25.711 8.90037C22.7732 12.3892 21.1624 16.8037 21.1628 21.3647V21.5581H5.44186V19.2847C5.44186 16.7693 5.36205 14.2564 4.97507 11.7725C4.30512 7.47219 2.82614 1 0 1" stroke="black" stroke-width="2"/>
</svg>
