<svg width="25" height="24" viewBox="0 0 25 24" fill="none" xmlns="http://www.w3.org/2000/svg">
<path d="M21.3966 3.49206C20.29 2.38099 18.9721 1.50002 17.5196 0.900497C16.0671 0.300974 14.5091 -0.00511579 12.9365 6.4674e-05C6.34699 6.4674e-05 0.976432 5.34005 0.976432 11.892C0.976432 13.992 1.53159 16.032 2.5695 17.832L0.879883 24L7.21594 22.344C8.9659 23.292 10.9331 23.796 12.9365 23.796C19.526 23.796 24.8965 18.456 24.8965 11.904C24.8965 8.72404 23.6535 5.73605 21.3966 3.49206ZM12.9365 21.78C11.1503 21.78 9.40037 21.3 7.86765 20.4L7.50559 20.184L3.74016 21.168L4.74186 17.52L4.50049 17.148C3.50789 15.5725 2.98095 13.7512 2.97983 11.892C2.97983 6.44405 7.44524 2.00406 12.9244 2.00406C15.5795 2.00406 18.0777 3.03606 19.9484 4.90805C20.8748 5.82469 21.6089 6.9151 22.1082 8.11604C22.6075 9.31698 22.862 10.6045 22.8569 11.904C22.8811 17.352 18.4157 21.78 12.9365 21.78ZM18.3915 14.388C18.0898 14.244 16.6174 13.524 16.3519 13.416C16.0743 13.32 15.8812 13.272 15.6761 13.56C15.4709 13.86 14.9037 14.532 14.7347 14.724C14.5658 14.928 14.3847 14.952 14.083 14.796C13.7813 14.652 12.8158 14.328 11.6813 13.32C10.7883 12.528 10.1969 11.556 10.0159 11.256C9.84691 10.956 9.99173 10.8 10.1486 10.644C10.2814 10.512 10.4503 10.296 10.5952 10.128C10.74 9.96004 10.8003 9.82804 10.8969 9.63604C10.9934 9.43204 10.9452 9.26404 10.8727 9.12004C10.8003 8.97604 10.1969 7.51204 9.95553 6.91205C9.71415 6.33605 9.46071 6.40805 9.27968 6.39605H8.70038C8.49522 6.39605 8.18143 6.46805 7.90385 6.76805C7.63834 7.06805 6.86595 7.78804 6.86595 9.25204C6.86595 10.716 7.94006 12.132 8.08488 12.324C8.22971 12.528 10.1969 15.528 13.1899 16.812C13.902 17.124 14.4571 17.304 14.8916 17.436C15.6037 17.664 16.2554 17.628 16.7743 17.556C17.3536 17.472 18.5484 16.836 18.7898 16.14C19.0432 15.444 19.0432 14.856 18.9588 14.724C18.8743 14.592 18.6932 14.532 18.3915 14.388Z" fill="white"/>
</svg>
